# xmcd
# Track frame offsets:
# 150
# 14446
# 28012
# 45748
# 59942
# 75772
# 90206
# 101915
# 114203
# 131045
#
# Disc length: 1924 seconds
# Revision: 0
# Processed by: cddbd v1.5PL3 Copyright (c) Steve Scherf et al.
# Submitted via: VisiTrax 2.9.6.190 - For more info visit www.synapsa.com
#
DISCID=7807820a
DTITLE=Joni Harms - Whatever It Takes
DYEAR=1995
DGENRE=
TTITLE0=Allo In The Jeans
TTITLE1=Love`s Gonna Tell On You
TTITLE2=To Believe in Love
TTITLE3=Stayin´ Power
TTITLE4=Music to My Ears
TTITLE5=Love is Spoken Here
TTITLE6=No More Tears
TTITLE7=The Gate is Open
TTITLE8=Whatever it Takes
TTITLE9=Tow Faces in a Texan Moon
EXTD=
EXTT0=
EXTT1=
EXTT2=
EXTT3=
EXTT4=
EXTT5=
EXTT6=
EXTT7=
EXTT8=
EXTT9=
PLAYORDER=
